<svg width="24" height="24" viewBox="0 0 24 24" fill="none" xmlns="http://www.w3.org/2000/svg">
<path d="M17 2H7C4.243 2 2 4.243 2 7V20C2 20.404 2.244 20.7701 2.617 20.9241C2.741 20.9761 2.871 21 3 21C3.26 21 3.516 20.898 3.707 20.707L6.121 18.293C6.31 18.105 6.56101 18 6.82901 18H17C19.757 18 22 15.757 22 13V7C22 4.243 19.757 2 17 2ZM20 13C20 14.654 18.654 16 17 16H6.82901C6.02801 16 5.274 16.3119 4.707 16.8789L4 17.5859V7C4 5.346 5.346 4 7 4H17C18.654 4 20 5.346 20 7V13ZM9.25 10C9.25 10.69 8.69 11.25 8 11.25C7.31 11.25 6.75 10.69 6.75 10C6.75 9.31 7.31 8.75 8 8.75C8.69 8.75 9.25 9.31 9.25 10ZM13.25 10C13.25 10.69 12.69 11.25 12 11.25C11.31 11.25 10.75 10.69 10.75 10C10.75 9.31 11.31 8.75 12 8.75C12.69 8.75 13.25 9.31 13.25 10ZM17.25 10C17.25 10.69 16.69 11.25 16 11.25C15.31 11.25 14.75 10.69 14.75 10C14.75 9.31 15.31 8.75 16 8.75C16.69 8.75 17.25 9.31 17.25 10Z" fill="#6E6E6E"/>
</svg>
