<svg width="40" height="40" viewBox="0 0 40 40" fill="none" xmlns="http://www.w3.org/2000/svg">
<rect width="40" height="40" rx="20" fill="#133D38"/>
<path d="M29.421 13.6691L26.1411 26.7892C25.6711 28.6592 24.071 29.4992 22.671 29.4992C22.661 29.4992 22.6511 29.4992 22.6511 29.4992C21.2411 29.4892 19.6311 28.6292 19.1911 26.7392L18.3311 23.0893L23.7111 17.7092C24.1011 17.3192 24.1011 16.6792 23.7111 16.2892C23.3211 15.8992 22.681 15.8992 22.291 16.2892L16.911 21.6691L13.2611 20.8093C11.3711 20.3693 10.5111 18.7593 10.5011 17.3593C10.4911 15.9493 11.3311 14.3293 13.2111 13.8593L26.3311 10.5793C27.2011 10.3593 28.1111 10.6092 28.7511 11.2492C29.3911 11.8892 29.641 12.7991 29.421 13.6691Z" fill="white"/>
</svg>
