<svg width="28" height="28" viewBox="0 0 28 28" fill="none" xmlns="http://www.w3.org/2000/svg">
<path fill-rule="evenodd" clip-rule="evenodd" d="M19.4662 14.2587C17.9472 14.8737 16.3075 15.2531 14.5925 15.3514C14.2967 15.3683 13.9987 15.3769 13.6987 15.3769C13.3987 15.3769 13.1007 15.3683 12.8049 15.3514C11.0895 15.2531 9.4494 14.8736 7.93004 14.2583C4.74155 12.967 2.08468 10.6372 0.378906 7.68846C3.03765 3.09229 8.00704 0 13.6987 0C19.3903 0 24.3597 3.09229 27.0184 7.68846C25.3125 10.6376 22.6552 12.9675 19.4662 14.2587Z" fill="#133D38"/>
<path d="M7.92982 15.4552C7.56249 15.3065 7.20222 15.1439 6.84965 14.9683C5.70382 15.7754 4.73518 16.7807 4.0058 17.9277C5.24556 19.8772 7.17657 21.4175 9.49397 22.2712C10.5982 22.678 11.7903 22.9289 13.037 22.9939H14.3362C15.5827 22.9289 17.7735 24.1638 14.5922 27.28C16.91 26.4264 22.1275 19.8774 23.3674 17.9277C22.6401 16.784 21.6749 15.7812 20.5334 14.9752C20.1849 15.1484 19.8289 15.3087 19.466 15.4557C17.947 16.0707 16.3072 16.4501 14.5922 16.5484C14.2965 16.5653 13.9985 16.5739 13.6984 16.5739C13.3984 16.5739 13.1004 16.5653 12.8047 16.5484C11.0893 16.4501 9.44918 16.0705 7.92982 15.4552Z" fill="#133D38"/>
<rect x="7.27582" y="5.72168" width="12.8737" height="4.59775" rx="2.29888" fill="white"/>
<ellipse cx="17.2628" cy="7.99502" rx="0.842922" ry="0.842921" fill="#133D38"/>
<ellipse cx="13.6866" cy="19.3361" rx="0.842922" ry="0.842921" fill="white"/>
<ellipse cx="10.3155" cy="7.99502" rx="0.842922" ry="0.842921" fill="#133D38"/>
<ellipse cx="10.3155" cy="19.3361" rx="0.842922" ry="0.842921" fill="white"/>
<ellipse cx="17.0587" cy="19.3361" rx="0.842922" ry="0.842921" fill="white"/>
</svg>
