<svg width="40" height="40" viewBox="0 0 40 40" fill="none" xmlns="http://www.w3.org/2000/svg">
<rect width="39.68" height="39.68" rx="19.84" fill="#133D38"/>
<path fill-rule="evenodd" clip-rule="evenodd" d="M26.2397 20.2054C24.7206 20.8204 23.0809 21.1998 21.3659 21.298C21.0701 21.315 20.7721 21.3236 20.4721 21.3236C20.1721 21.3236 19.8741 21.315 19.5783 21.298C17.8629 21.1997 16.2228 20.8202 14.7035 20.2049C11.515 18.9137 8.85812 16.5839 7.15234 13.6351C9.81109 9.03895 14.7805 5.94667 20.4721 5.94667C26.1637 5.94667 31.1331 9.03895 33.7919 13.6351C32.0859 16.5842 29.4286 18.9142 26.2397 20.2054Z" fill="white"/>
<path d="M14.7032 21.4019C14.3359 21.2531 13.9756 21.0906 13.623 20.9149C12.4772 21.722 11.5086 22.7273 10.7792 23.8743C12.0189 25.8238 13.9499 27.3641 16.2673 28.2178C17.3716 28.6246 18.5636 28.8755 19.8104 28.9405H21.1096C22.3561 28.8755 24.5469 30.1104 21.3656 33.2266C23.6834 32.373 28.9009 25.824 30.1408 23.8743C29.4135 22.7306 28.4483 21.7278 27.3068 20.9218C26.9583 21.095 26.6023 21.2554 26.2394 21.4023C24.7203 22.0173 23.0806 22.3967 21.3656 22.495C21.0698 22.5119 20.7718 22.5205 20.4718 22.5205C20.1718 22.5205 19.8738 22.5119 19.578 22.495C17.8626 22.3967 16.2226 22.0172 14.7032 21.4019Z" fill="white"/>
<rect x="14.0492" y="11.6683" width="12.8737" height="4.59775" rx="2.29888" fill="#133D38"/>
<ellipse cx="24.0362" cy="13.9417" rx="0.842922" ry="0.842921" fill="#04FED1"/>
<ellipse cx="20.46" cy="25.2827" rx="0.842922" ry="0.842921" fill="#133D38"/>
<ellipse cx="17.0889" cy="13.9417" rx="0.842922" ry="0.842921" fill="#04FED1"/>
<ellipse cx="17.0889" cy="25.2827" rx="0.842922" ry="0.842921" fill="#133D38"/>
<ellipse cx="23.8322" cy="25.2827" rx="0.842922" ry="0.842921" fill="#133D38"/>
</svg>
