<svg width="40" height="40" viewBox="0 0 40 40" fill="none" xmlns="http://www.w3.org/2000/svg">
<path d="M29.707 28.293L25.168 23.7539C26.311 22.3059 27 20.483 27 18.5C27 13.813 23.187 10 18.5 10C13.813 10 10 13.813 10 18.5C10 23.187 13.813 27 18.5 27C20.484 27 22.306 26.312 23.754 25.168L28.293 29.707C28.488 29.902 28.744 30 29 30C29.256 30 29.512 29.902 29.707 29.707C30.098 29.316 30.098 28.684 29.707 28.293ZM12 18.5C12 14.916 14.916 12 18.5 12C22.084 12 25 14.916 25 18.5C25 22.084 22.084 25 18.5 25C14.916 25 12 22.084 12 18.5Z" fill="#191919"/>
</svg>
