<svg width="40" height="40" viewBox="0 0 40 40" fill="none" xmlns="http://www.w3.org/2000/svg">
<path d="M29 13H25.441C25.01 13 24.629 12.726 24.492 12.317L24.176 11.3669C23.903 10.5499 23.14 10 22.279 10H17.72C16.858 10 16.095 10.55 15.823 11.368L15.507 12.316C15.371 12.725 14.989 13 14.558 13H11C10.448 13 10 13.447 10 14C10 14.553 10.448 15 11 15H12.065L12.816 26.266C12.955 28.36 14.708 30 16.807 30H23.194C25.293 30 27.046 28.359 27.185 26.266L27.936 15H29C29.552 15 30 14.553 30 14C30 13.447 29.552 13 29 13ZM17.721 12L22.28 11.999L22.596 12.949C22.602 12.967 22.611 12.982 22.618 13H17.384C17.39 12.982 17.4 12.966 17.406 12.948L17.721 12ZM25.189 26.1331C25.119 27.1801 24.243 28 23.193 28H16.806C15.757 28 14.88 27.1801 14.81 26.1331L14.069 15H14.559C14.666 15 14.771 14.986 14.876 14.975C14.919 14.981 14.956 15 15.001 15H25.001C25.045 15 25.083 14.98 25.126 14.975C25.231 14.986 25.335 15 25.443 15H25.933L25.189 26.1331ZM23 19V24C23 24.553 22.552 25 22 25C21.448 25 21 24.553 21 24V19C21 18.447 21.448 18 22 18C22.552 18 23 18.447 23 19ZM19 19V24C19 24.553 18.552 25 18 25C17.448 25 17 24.553 17 24V19C17 18.447 17.448 18 18 18C18.552 18 19 18.447 19 19Z" fill="#191919"/>
</svg>
